<svg xmlns="http://www.w3.org/2000/svg" viewBox="0 0 245 245"><defs><style>.cls-1{fill:#fff;}</style></defs><title>logo</title><g id="background"><circle class="cls-1" cx="122.5" cy="122.5" r="121"/><path d="M125.56,5.51a119.5,119.5,0,0,1,84.5,204,119.5,119.5,0,1,1-169-169,118.7,118.7,0,0,1,84.49-35m0-3A122.5,122.5,0,1,0,248.06,125,122.5,122.5,0,0,0,125.56,2.51Z" transform="translate(-3.06 -2.51)"/></g><g id="title"><path d="M37.67,128.07l16.59-1a12.58,12.58,0,0,0,2.2,6.16,9.22,9.22,0,0,0,7.7,3.43,8.54,8.54,0,0,0,5.75-1.75,5.26,5.26,0,0,0,2-4.07A5.17,5.17,0,0,0,70,126.88q-1.92-1.74-8.93-3.28Q49.61,121,44.71,116.75a13.79,13.79,0,0,1-4.92-10.89,14.81,14.81,0,0,1,2.52-8.22,16.77,16.77,0,0,1,7.58-6.09q5.07-2.2,13.88-2.21,10.82,0,16.5,4T87,106.16l-16.44,1a8.89,8.89,0,0,0-2.76-5.55A8.87,8.87,0,0,0,62,99.85a7,7,0,0,0-4.58,1.29,4,4,0,0,0-1.54,3.14,3.12,3.12,0,0,0,1.27,2.42q1.23,1.13,5.85,2.08,11.43,2.46,16.38,5a17.18,17.18,0,0,1,7.2,6.25,15.89,15.89,0,0,1,2.25,8.36,17.92,17.92,0,0,1-3,10,18.83,18.83,0,0,1-8.39,7,33.93,33.93,0,0,1-13.59,2.37q-14.4,0-20-5.55A21.9,21.9,0,0,1,37.67,128.07Z" transform="translate(-3.06 -2.51)"/><path d="M92.11,90.3h18.23L123,130.92,135.58,90.3h17.7l-20.95,56.44H113.42Z" transform="translate(-3.06 -2.51)"/><path d="M184.66,126.3V114.56h27v24.06a55.16,55.16,0,0,1-13.68,7.18,46.49,46.49,0,0,1-14.11,1.91q-10,0-16.39-3.43a23.49,23.49,0,0,1-9.81-10.2,33.49,33.49,0,0,1-3.49-15.56,32.45,32.45,0,0,1,3.81-16.07,24.68,24.68,0,0,1,11.17-10.38q5.73-2.73,15.44-2.73,9.34,0,14,1.69a18.15,18.15,0,0,1,7.7,5.26,23.2,23.2,0,0,1,4.6,9l-16.82,3a9.17,9.17,0,0,0-3.52-4.89,11,11,0,0,0-6.34-1.69,11.4,11.4,0,0,0-9.14,4q-3.41,4-3.41,12.61,0,9.17,3.45,13.09c2.29,2.62,5.5,3.93,9.6,3.93a18.51,18.51,0,0,0,5.59-.85,30.1,30.1,0,0,0,6.08-2.89V126.3Z" transform="translate(-3.06 -2.51)"/></g></svg>