<?xml version="1.0" encoding="utf-8"?>
<!-- Generator: Adobe Illustrator 23.0.3, SVG Export Plug-In . SVG Version: 6.00 Build 0)  -->
<svg version="1.1" xmlns="http://www.w3.org/2000/svg" xmlns:xlink="http://www.w3.org/1999/xlink" x="0px" y="0px"
	 viewBox="0 0 250 250" style="enable-background:new 0 0 250 250;" xml:space="preserve">
<style type="text/css">
	.st0{fill:#FFFFFF;}
</style>
<g id="background">
	<g>
		<circle class="st0" cx="125.5" cy="125.5" r="121"/>
		<path d="M125.5,6c31.92,0,61.93,12.43,84.5,35s35,52.58,35,84.5s-12.43,61.93-35,84.5s-52.58,35-84.5,35S63.57,232.57,41,210
			S6,157.42,6,125.5S18.43,63.57,41,41S93.58,6,125.5,6 M125.5,3C57.85,3,3,57.85,3,125.5S57.85,248,125.5,248S248,193.15,248,125.5
			S193.15,3,125.5,3L125.5,3z"/>
	</g>
</g>
<g id="title">
	<g>
		<path d="M49.75,131.77l15.15-0.95c0.33,2.46,1,4.34,2,5.62c1.64,2.09,3.98,3.13,7.03,3.13c2.27,0,4.03-0.53,5.26-1.6
			c1.23-1.07,1.85-2.3,1.85-3.71c0-1.34-0.59-2.53-1.76-3.59c-1.17-1.05-3.89-2.05-8.16-2.99c-6.98-1.57-11.97-3.66-14.94-6.26
			c-3-2.6-4.5-5.92-4.5-9.95c0-2.65,0.77-5.15,2.3-7.51c1.53-2.36,3.84-4.21,6.93-5.55c3.08-1.35,7.31-2.02,12.67-2.02
			c6.59,0,11.61,1.23,15.06,3.67c3.46,2.45,5.51,6.35,6.17,11.69l-15.01,0.88c-0.4-2.32-1.24-4.01-2.51-5.06
			c-1.28-1.05-3.04-1.58-5.29-1.58c-1.85,0-3.25,0.39-4.18,1.18c-0.94,0.79-1.41,1.74-1.41,2.87c0,0.82,0.39,1.56,1.16,2.21
			c0.75,0.68,2.53,1.31,5.34,1.9c6.96,1.5,11.95,3.02,14.96,4.55c3.01,1.54,5.2,3.44,6.57,5.71c1.37,2.27,2.06,4.82,2.06,7.63
			c0,3.3-0.91,6.35-2.74,9.14c-1.83,2.79-4.38,4.9-7.66,6.35c-3.28,1.44-7.42,2.16-12.41,2.16c-8.77,0-14.84-1.69-18.21-5.06
			S50.2,136.98,49.75,131.77z"/>
		<path d="M99.47,97.29h16.65l11.6,37.09l11.45-37.09h16.16l-19.14,51.54h-17.26L99.47,97.29z"/>
		<path d="M183.98,130.16v-10.72h24.61v21.97c-4.71,3.21-8.88,5.4-12.5,6.56s-7.92,1.74-12.88,1.74c-6.12,0-11.1-1.04-14.96-3.13
			c-3.86-2.09-6.84-5.19-8.96-9.32c-2.12-4.12-3.18-8.86-3.18-14.2c0-5.62,1.16-10.52,3.48-14.68c2.32-4.16,5.72-7.32,10.2-9.47
			c3.49-1.66,8.19-2.5,14.1-2.5c5.7,0,9.96,0.52,12.78,1.55c2.82,1.03,5.17,2.63,7.03,4.8c1.86,2.17,3.26,4.92,4.2,8.24l-15.36,2.74
			c-0.63-1.95-1.71-3.43-3.22-4.46c-1.51-1.03-3.44-1.55-5.78-1.55c-3.49,0-6.28,1.21-8.35,3.64s-3.11,6.26-3.11,11.51
			c0,5.58,1.05,9.56,3.15,11.95s5.02,3.59,8.77,3.59c1.78,0,3.48-0.26,5.1-0.77c1.62-0.51,3.47-1.39,5.55-2.64v-4.85H183.98z"/>
	</g>
</g>
</svg>
