<svg xmlns="http://www.w3.org/2000/svg" xmlns:xlink="http://www.w3.org/1999/xlink" width="300" height="300" viewBox="0 0 100 100">
  <!-- <defs>
    <clipPath id="clip-demo2Box">
      <rect width="100" height="100"/>
    </clipPath>
  </defs> -->
  <!-- <g id="demo2Box" clip-path="url(#clip-demo2Box)"> -->
  <g id="demo2Box-a">
    <!-- <rect width="100" height="100" fill="#fff"/> -->
    <path id="Path_1" data-name="Path 1" d="M141.138,90.814,156.5,102.235v15.184l-15.358,11.421L125.78,117.419V102.235Z" transform="translate(-116 -83)" fill="none" stroke="#fff" stroke-width="1"/>
    <path id="Path_2" data-name="Path 2" d="M125.78,106.716l14.877,9.82v15.681l-14.877-11.15Z" transform="translate(-115.919 -86.866)" fill="#90E8C3" stroke="#fff" stroke-width="1"/>
  <animateTransform
  attributeName="transform"
  attributeType="XML"
  type="translate"
  from="0 0"
  to="50 0"
  begin="0"
  dur="3s"
  repeatCount="indefinite"
  />
  </g>
  <!-- <g id="demo2Box" clip-path="url(#clip-demo2Box)"> -->
  <g id="demo2Box-b">
    <!-- <rect width="100" height="100" fill="#fff"/> -->
    <path id="Path_1" data-name="Path 1" d="M141.138,90.814,156.5,102.235v15.184l-15.358,11.421L125.78,117.419V102.235Z" transform="translate(-116 -83)" fill="none" stroke="#020202" stroke-width="1"/>
    <path id="Path_2" data-name="Path 2" d="M125.78,106.716l14.877,9.82v15.681l-14.877-11.15Z" transform="translate(-115.919 -86.866)" fill="#1300fc" stroke="#000" stroke-width="1"/>
  <animateTransform
  attributeName="transform"
  attributeType="XML"
  type="translate"
  from="50 50"
  to="0 50"
  begin="0"
  dur="3s"
  repeatCount="indefinite"
  />
  </g>
  <g id="demo2Box-c">
    <!-- <rect width="100" height="100" fill="#fff"/> -->
    <path id="Path_1" data-name="Path 1" d="M141.138,90.814,156.5,102.235v15.184l-15.358,11.421L125.78,117.419V102.235Z" transform="translate(-116 -83)" fill="none" stroke="#020202" stroke-width="1"/>
    <path id="Path_2" data-name="Path 2" d="M125.78,106.716l14.877,9.82v15.681l-14.877-11.15Z" transform="translate(-115.919 -86.866)" fill="#1300fc" stroke="#000" stroke-width="1"/>
  <animateTransform
  attributeName="transform"
  attributeType="XML"
  type="translate"
  from="0 50"
  to="0 0"
  begin="0"
  dur="3s"
  repeatCount="indefinite"
  />
  </g>
  <g id="demo2Box-d">
    <!-- <rect width="100" height="100" fill="#fff"/> -->
    <path id="Path_1" data-name="Path 1" d="M141.138,90.814,156.5,102.235v15.184l-15.358,11.421L125.78,117.419V102.235Z" transform="translate(-116 -83)" fill="none" stroke="#020202" stroke-width="1"/>
    <path id="Path_2" data-name="Path 2" d="M125.78,106.716l14.877,9.82v15.681l-14.877-11.15Z" transform="translate(-115.919 -86.866)" fill="#1300fc" stroke="#000" stroke-width="1"/>
  <animateTransform
  attributeName="transform"
  attributeType="XML"
  type="translate"
  from="50 0"
  to="50 50"
  begin="0"
  dur="3s"
  repeatCount="indefinite"
  />
  </g>
</svg>
