<?xml version="1.0" encoding="utf-8"?>
<!-- Generator: Adobe Illustrator 23.0.3, SVG Export Plug-In . SVG Version: 6.00 Build 0)  -->
<svg version="1.1" id="Layer_1" xmlns="http://www.w3.org/2000/svg" xmlns:xlink="http://www.w3.org/1999/xlink" x="0px" y="0px"
	 width="500px" height="500px" viewBox="0 0 100 100" style="enable-background:new 0 0 100 100;" xml:space="preserve">
<style type="text/css">
	.st0{fill:#FFFFFF;}
	.st1{fill:#0000FF;stroke:#000000;stroke-miterlimit:10;}
</style>
<g>
	<!-- <g> -->
		<polygon class="st0" points="3.75,20.08 3.75,10.41 12.12,5.58 20.5,10.41 20.5,20.08 12.12,24.92 		"/>
		<path d="M12.13,6.15L20,10.7v9.09l-7.87,4.55l-7.87-4.55V10.7L12.13,6.15 M12.13,5l-8.87,5.12v10.25l8.87,5.12L21,20.37V10.12
			L12.13,5L12.13,5z"/>
	<!-- </g> -->
	<polygon class="st1" points="4,11 12,14.9 12,24 4,19.67 	"/>
	<animateTransform
	attributeName="transform"
	attributeType="XML"
	type="translate"
	from="0 0"
	to="50 0"
	begin="0"
	dur="3s"
	repeatCount="indefinite"

	/>
</g>
<g>
	<!-- <g> -->
		<polygon class="st0" points="3.75,20.08 3.75,10.41 12.12,5.58 20.5,10.41 20.5,20.08 12.12,24.92 		"/>
		<path d="M12.13,6.15L20,10.7v9.09l-7.87,4.55l-7.87-4.55V10.7L12.13,6.15 M12.13,5l-8.87,5.12v10.25l8.87,5.12L21,20.37V10.12
			L12.13,5L12.13,5z"/>
	<!-- </g> -->
	<polygon class="st1" points="4,11 12,14.9 12,24 4,19.67 	"/>
	<animateTransform
	attributeName="transform"
	type="translate"
	from="50 50"
	to="0 50"
	begin="0"
	dur="3s"
	repeatCount="indefinite"

	/>
</g>
<g>
	<!-- <g> -->
		<polygon class="st0" points="3.75,20.08 3.75,10.41 12.12,5.58 20.5,10.41 20.5,20.08 12.12,24.92 		"/>
		<path d="M12.13,6.15L20,10.7v9.09l-7.87,4.55l-7.87-4.55V10.7L12.13,6.15 M12.13,5l-8.87,5.12v10.25l8.87,5.12L21,20.37V10.12
			L12.13,5L12.13,5z"/>
	<!-- </g> -->
	<polygon class="st1" points="4,11 12,14.9 12,24 4,19.67 	"/>
	<animateTransform
	attributeName="transform"
	type="translate"
	from="0 50"
	to="0 0"
	begin="0"
	dur="3s"
	repeatCount="indefinite"

	/>
</g>
<g>
	<!-- <g> -->
		<polygon class="st0" points="3.75,20.08 3.75,10.41 12.12,5.58 20.5,10.41 20.5,20.08 12.12,24.92 		"/>
		<path d="M12.13,6.15L20,10.7v9.09l-7.87,4.55l-7.87-4.55V10.7L12.13,6.15 M12.13,5l-8.87,5.12v10.25l8.87,5.12L21,20.37V10.12
			L12.13,5L12.13,5z"/>
	<!-- </g> -->
	<polygon class="st1" points="4,11 12,14.9 12,24 4,19.67 	"/>
	<animateTransform
	attributeName="transform"
	type="translate"
	from="50 0"
	to="50 50"
	begin="0"
	dur="3s"
	repeatCount="indefinite"

	/>
</g>
</svg>
